<svg width="95" height="95" viewBox="0 0 95 95" fill="none" xmlns="http://www.w3.org/2000/svg">
<path fill-rule="evenodd" clip-rule="evenodd" d="M0 47.2083C0 21.1359 21.1359 0 47.2083 0C73.2806 0 94.4167 21.1359 94.4167 47.2083C94.4167 73.2806 73.2806 94.4167 47.2083 94.4167C21.1359 94.4167 0 73.2806 0 47.2083ZM74.7428 37.3549C76.4153 35.6753 76.4093 32.9579 74.7295 31.2856L71.6884 28.2574C70.0087 26.5851 67.2916 26.5909 65.6191 28.2705L40.8494 53.1471L26.5964 39.0924C24.9087 37.4284 22.1915 37.4474 20.5273 39.1353L17.5139 42.1909C15.8497 43.8784 15.8688 46.5959 17.5565 48.2602L37.8916 68.3122C39.5735 69.9709 42.2794 69.9585 43.9462 68.2847L74.7428 37.3549Z" fill="#1FCA4A"/>
</svg>
