<svg width="25" height="25" viewBox="0 0 25 25" fill="none" xmlns="http://www.w3.org/2000/svg">
<path d="M22.9167 12.5C22.9167 18.253 18.2529 22.9167 12.5 22.9167C6.74703 22.9167 2.08333 18.253 2.08333 12.5C2.08333 6.74707 6.74703 2.08337 12.5 2.08337C18.2529 2.08337 22.9167 6.74707 22.9167 12.5Z" fill="#F47844"/>
<path fill-rule="evenodd" clip-rule="evenodd" d="M12.5 7.55212C12.9315 7.55212 13.2812 7.90191 13.2812 8.33337V12.1764L15.6566 14.5518C15.9617 14.8569 15.9617 15.3515 15.6566 15.6566C15.3515 15.9617 14.8569 15.9617 14.5518 15.6566L11.9476 13.0524C11.801 12.906 11.7188 12.7072 11.7188 12.5V8.33337C11.7188 7.90191 12.0685 7.55212 12.5 7.55212Z" fill="white"/>
</svg>
