<svg width="43" height="43" viewBox="0 0 43 43" fill="none" xmlns="http://www.w3.org/2000/svg">
<path d="M0 8C0 3.58172 3.58172 0 8 0H35C39.4183 0 43 3.58172 43 8V35C43 39.4183 39.4183 43 35 43H8C3.58172 43 0 39.4183 0 35V8Z" fill="#FFF7ED"/>
<path d="M13 18C13.8109 19.1215 14.7662 20.0965 15.8333 20.8915M15.8333 20.8915C16.982 21.7469 18.2647 22.3411 19.6111 22.6415C20.8589 22.9152 22.1411 22.9152 23.3889 22.6415C24.7353 22.3411 26.018 21.7469 27.1667 20.8915M15.8333 20.8915L14.4167 22.8462M30 18C29.1891 19.1215 28.2338 20.0965 27.1667 20.8915M27.1667 20.8915L28.5833 22.8462M19.6111 22.6405L19.1389 25M23.3889 22.6405L23.8611 25" stroke="#F47844" stroke-width="2" stroke-linecap="round" stroke-linejoin="round"/>
</svg>
