<svg width="60" height="60" viewBox="0 0 60 60" fill="none" xmlns="http://www.w3.org/2000/svg">
<path d="M37.5 30C37.5 34.1423 34.1423 37.5 30 37.5C25.8577 37.5 22.5 34.1423 22.5 30C22.5 25.8577 25.8577 22.5 30 22.5C34.1423 22.5 37.5 25.8577 37.5 30Z" stroke="black" stroke-width="3" stroke-linecap="round" stroke-linejoin="round"/>
<path d="M32.2615 7.65013C31.747 7.5 31.1648 7.5 30 7.5C28.8352 7.5 28.253 7.5 27.7385 7.65013C26.9855 7.86985 26.3203 8.3202 25.8365 8.93777C25.506 9.3597 25.2898 9.9004 24.8573 10.9818C24.2355 12.5363 22.5098 13.3368 20.9214 12.8075L19.4945 12.332C18.4823 11.9946 17.9761 11.8259 17.4799 11.797C16.751 11.7545 16.0255 11.9258 15.3925 12.2898C14.9616 12.5375 14.5844 12.9148 13.8299 13.6693C13.0281 14.4711 12.6271 14.872 12.3724 15.3297C11.9982 16.0021 11.8399 16.7734 11.919 17.5388C11.9728 18.0598 12.1834 18.5862 12.6046 19.6391C13.2641 21.2881 12.6296 23.1719 11.1068 24.0858L10.413 24.5022C9.35077 25.1395 8.81965 25.4582 8.43385 25.897C8.09245 26.2852 7.83502 26.74 7.67772 27.2325C7.5 27.789 7.5 28.4145 7.5 29.6657C7.5 31.1472 7.5 31.8877 7.73655 32.522C7.94557 33.0822 8.28555 33.5842 8.7281 33.9865C9.22895 34.4415 9.90987 34.714 11.2716 35.2588C12.6633 35.8153 13.3799 37.3603 12.9059 38.7823L12.368 40.396C11.9955 41.5135 11.8092 42.0725 11.7922 42.6215C11.7719 43.2817 11.9262 43.9355 12.2397 44.5167C12.5004 45.0005 12.9169 45.417 13.75 46.25C14.5831 47.083 14.9996 47.4995 15.4831 47.7602C16.0645 48.0737 16.7183 48.2283 17.3785 48.2078C17.9275 48.1908 18.4864 48.0045 19.6041 47.632L20.9215 47.1927C22.5098 46.6635 24.2355 47.4637 24.8573 49.0182C25.2898 50.0995 25.506 50.6403 25.8365 51.0623C26.3203 51.6798 26.9855 52.1303 27.7385 52.35C28.253 52.5 28.8352 52.5 30 52.5C31.1648 52.5 31.747 52.5 32.2615 52.35C33.0145 52.1303 33.6797 51.6798 34.1635 51.0623C34.494 50.6403 34.7103 50.0995 35.1428 49.0182C35.7645 47.4637 37.4902 46.6635 39.0782 47.1933L40.3947 47.6323C41.5125 48.0048 42.0715 48.191 42.6205 48.208C43.2808 48.2282 43.9345 48.074 44.5157 47.7605C44.9992 47.4998 45.416 47.0832 46.249 46.2502C47.082 45.4172 47.4985 45.0005 47.7593 44.517C48.0728 43.9358 48.227 43.2818 48.2067 42.6218C48.1897 42.0728 48.0035 41.5137 47.631 40.396L47.0935 38.7835C46.6193 37.361 47.336 35.8155 48.7283 35.2588C50.09 34.714 50.771 34.4415 51.272 33.9865C51.7145 33.5842 52.0545 33.0822 52.2635 32.522C52.5 31.8877 52.5 31.1472 52.5 29.6657C52.5 28.4145 52.5 27.789 52.3222 27.2325C52.165 26.74 51.9075 26.2852 51.5662 25.897C51.1802 25.4582 50.6493 25.1395 49.587 24.5022L48.8923 24.0854C47.3695 23.1717 46.7347 21.2878 47.3945 19.6389C47.8155 18.5861 48.0263 18.0596 48.08 17.5386C48.159 16.7731 48.0008 16.0019 47.6265 15.3295C47.3718 14.8719 46.971 14.4709 46.169 13.669C45.4145 12.9146 45.0372 12.5374 44.6065 12.2896C43.9735 11.9256 43.248 11.7543 42.519 11.7968C42.0228 11.8257 41.5167 11.9944 40.5045 12.3318L39.0785 12.8072C37.4903 13.3366 35.7645 12.5363 35.1428 10.9818C34.7103 9.9004 34.494 9.3597 34.1635 8.93777C33.6797 8.3202 33.0145 7.86985 32.2615 7.65013Z" stroke="black" stroke-width="3" stroke-linecap="round" stroke-linejoin="round"/>
</svg>
