<svg width="48" height="48" viewBox="0 0 48 48" fill="none" xmlns="http://www.w3.org/2000/svg">
<path d="M0 8C0 3.58172 3.58172 0 8 0H40C44.4183 0 48 3.58172 48 8V40C48 44.4183 44.4183 48 40 48H8C3.58172 48 0 44.4183 0 40V8Z" fill="#EDF5FF" fill-opacity="0.5"/>
<path d="M31.2735 15.0084C30.8869 15.0084 30.5201 15.0939 30.1901 15.246C29.9663 14.0398 28.9069 13.1233 27.6367 13.1233C27.2377 13.1233 26.8596 13.2139 26.5215 13.3753C26.2413 12.2433 25.2174 11.4014 24 11.4014C22.7827 11.4014 21.7587 12.2433 21.4786 13.3753C21.1405 13.2139 20.7623 13.1233 20.3633 13.1233C18.9309 13.1233 17.7656 14.2886 17.7656 15.7209V22.0707C17.4472 21.9312 17.0959 21.8532 16.7266 21.8532C15.2942 21.8532 14.1289 23.0185 14.1289 24.4509V29.7928C14.1289 33.5455 17.182 36.5987 20.9348 36.5987H27.0653C30.818 36.5987 33.8711 33.5455 33.8711 29.7928V17.6061C33.8711 16.1737 32.7058 15.0084 31.2735 15.0084ZM32.3125 29.7928C32.3125 32.6861 29.9586 35.0401 27.0653 35.0401H20.9348C18.0415 35.0401 15.6875 32.6861 15.6875 29.7928V24.4509C15.6875 23.8779 16.1536 23.4118 16.7266 23.4118C17.2995 23.4118 17.7656 23.8779 17.7656 24.4509V28.6071H19.3242V15.7209C19.3242 15.148 19.7904 14.6818 20.3633 14.6818C20.9362 14.6818 21.4024 15.148 21.4024 15.7209V23.9313H22.961V13.999C22.961 13.4261 23.4271 12.96 24 12.96C24.573 12.96 25.0391 13.4261 25.0391 13.999V23.9313H26.5977V15.7209C26.5977 15.148 27.0638 14.6818 27.6367 14.6818C28.2097 14.6818 28.6758 15.148 28.6758 15.7209V23.9313H30.2344V17.606C30.2344 17.0331 30.7005 16.567 31.2735 16.567C31.8464 16.567 32.3125 17.0331 32.3125 17.606V29.7928Z" fill="#176BC6"/>
</svg>
