<svg width="48" height="48" viewBox="0 0 48 48" fill="none" xmlns="http://www.w3.org/2000/svg">
<path d="M0 8C0 3.58172 3.58172 0 8 0H40C44.4183 0 48 3.58172 48 8V40C48 44.4183 44.4183 48 40 48H8C3.58172 48 0 44.4183 0 40V8Z" fill="#FAF5FF"/>
<path d="M34.4166 24C34.4166 29.753 29.7529 34.4167 24 34.4167C18.247 34.4167 13.5833 29.753 13.5833 24C13.5833 18.2471 18.247 13.5834 24 13.5834C29.7529 13.5834 34.4166 18.2471 34.4166 24Z" fill="#9810FA"/>
<path fill-rule="evenodd" clip-rule="evenodd" d="M24 19.0521C24.4315 19.0521 24.7812 19.4019 24.7812 19.8334V23.6764L27.1566 26.0518C27.4617 26.3569 27.4617 26.8515 27.1566 27.1566C26.8515 27.4617 26.3569 27.4617 26.0518 27.1566L23.4476 24.5524C23.301 24.406 23.2188 24.2072 23.2188 24V19.8334C23.2188 19.4019 23.5685 19.0521 24 19.0521Z" fill="white"/>
</svg>
