<svg width="49" height="49" viewBox="0 0 49 49" fill="none" xmlns="http://www.w3.org/2000/svg">
<path d="M0 8C0 3.58172 3.58172 0 8 0H41C45.4183 0 49 3.58172 49 8V41C49 45.4183 45.4183 49 41 49H8C3.58172 49 0 45.4183 0 41V8Z" fill="#EDF5FF"/>
<path d="M23.5254 30.0723C23.2988 29.4766 22.6054 29.1856 21.9804 29.4239L18.7031 30.67L20.6914 23.5919C20.7617 23.3438 20.75 23.088 20.6601 22.8497C20.4199 22.2188 19.6855 21.9102 19.0215 22.1641L13.582 24.2305C13.2812 24.3438 13.041 24.5626 12.9023 24.8419C12.7597 25.1309 12.7422 25.4532 12.8535 25.7481C13.0801 26.3458 13.7773 26.6387 14.4062 26.4005L17.5762 25.1954L15.5703 32.2344C15.498 32.4884 15.5078 32.7501 15.5996 32.9923C15.7851 33.4805 16.2637 33.7774 16.7793 33.7774C16.9394 33.7774 17.1035 33.7481 17.2637 33.6876L22.8027 31.5821C23.4277 31.3438 23.7519 30.6661 23.5254 30.0723Z" fill="#176BC6"/>
<path d="M30.0859 24.0743C29.9766 23.4317 29.3379 23.004 28.6641 23.1172L25.1269 23.7188L28.5234 17.0059C28.6426 16.7696 28.6816 16.5098 28.6387 16.254C28.5234 15.5723 27.8457 15.1192 27.1289 15.2403L21.2578 16.2422C20.9336 16.2969 20.6484 16.4668 20.4531 16.7227C20.2519 16.9864 20.1719 17.3047 20.2246 17.6231C20.334 18.2696 20.9766 18.6993 21.6543 18.584L25.0762 18.002L21.668 24.6719C21.5457 24.908 21.5038 25.1775 21.5488 25.4395C21.6387 25.9668 22.0605 26.3594 22.5781 26.461C22.7383 26.4922 22.9082 26.4961 23.082 26.4668L29.0605 25.4493C29.7344 25.334 30.1953 24.7168 30.0859 24.0743Z" fill="#176BC6"/>
<path d="M36.207 26.543C36.1718 26.127 35.7871 25.8184 35.3496 25.8555L33.0566 26.0488L35.5898 21.9453C35.6796 21.8008 35.7187 21.6367 35.705 21.4727C35.6679 21.0312 35.2597 20.7051 34.7968 20.7441L30.9941 21.0625C30.7875 21.079 30.5949 21.1732 30.455 21.3262C30.3125 21.4824 30.2441 21.6836 30.2617 21.8887C30.2968 22.3066 30.6836 22.6172 31.123 22.5801L33.3398 22.3926L30.8007 26.4668C30.7089 26.6133 30.6679 26.7812 30.6836 26.9492C30.7129 27.291 30.9609 27.5645 31.2851 27.6582C31.3867 27.6875 31.4941 27.6992 31.6054 27.6895L35.4785 27.3633C35.916 27.3281 36.2422 26.959 36.207 26.543Z" fill="#176BC6"/>
</svg>
